# xmcd
#
# Track frame offsets:
#	150
#	12331
#	27525
#	29843
#	45041
#	60122
#	70874
#	91590
#	103381
#	117174
#	130508
#	157226
#	168693
#	182432
#
# Disc length: 2658 seconds
#
# Revision: 1
# Processed by: cddbd v1.5.1PL0 Copyright (c) Steve Scherf et al.
# Submitted via: audiograbber 1.82.02
#
DISCID=b00a600e
DTITLE=TMO - Me and my raincoat
DYEAR=2004
DGENRE=Blues
TTITLE0=Take me as i am
TTITLE1=C.H.I.C.A.G.O.
TTITLE2=Intro - Bell
TTITLE3=Me and my raincoat
TTITLE4=How long
TTITLE5=Cryin´ Mother Blues
TTITLE6=I don´t know why
TTITLE7=2nd Step
TTITLE8=H. Boat
TTITLE9=I had to go
TTITLE10=Wish
TTITLE11=Ode to the blues
TTITLE12=Too Short
TTITLE13=Sweet Mama
EXTD=
EXTT0=
EXTT1=
EXTT2=
EXTT3=
EXTT4=
EXTT5=
EXTT6=
EXTT7=
EXTT8=
EXTT9=
EXTT10=
EXTT11=
EXTT12=
EXTT13=
PLAYORDER=
